<svg xmlns="http://www.w3.org/2000/svg" viewBox="0 0 100 100">
  <defs>
    <linearGradient id="sunGradient" x1="0%" y1="0%" x2="100%" y2="100%">
      <stop offset="0%" style="stop-color:#fbbf24;stop-opacity:1" />
      <stop offset="100%" style="stop-color:#f59e0b;stop-opacity:1" />
    </linearGradient>
  </defs>
  
  <!-- Sun -->
  <circle cx="50" cy="40" r="28" fill="url(#sunGradient)"/>
  
  <!-- Sun rays -->
  <line x1="50" y1="5" x2="50" y2="15" stroke="url(#sunGradient)" stroke-width="5" stroke-linecap="round"/>
  <line x1="78" y1="12" x2="70" y2="20" stroke="url(#sunGradient)" stroke-width="5" stroke-linecap="round"/>
  <line x1="88" y1="40" x2="78" y2="40" stroke="url(#sunGradient)" stroke-width="5" stroke-linecap="round"/>
  <line x1="78" y1="68" x2="70" y2="60" stroke="url(#sunGradient)" stroke-width="5" stroke-linecap="round"/>
  <line x1="22" y1="12" x2="30" y2="20" stroke="url(#sunGradient)" stroke-width="5" stroke-linecap="round"/>
  <line x1="12" y1="40" x2="22" y2="40" stroke="url(#sunGradient)" stroke-width="5" stroke-linecap="round"/>
  <line x1="22" y1="68" x2="30" y2="60" stroke="url(#sunGradient)" stroke-width="5" stroke-linecap="round"/>
  
  <!-- Cloud -->
  <path d="M 20 70 Q 20 60 32 60 Q 32 50 45 50 Q 58 50 58 60 Q 70 60 70 70 Q 70 80 58 80 L 32 80 Q 20 80 20 70 Z" 
        fill="#ffffff" opacity="0.95"/>
  <path d="M 40 72 Q 40 63 51 63 Q 51 55 62 55 Q 73 55 73 63 Q 84 63 84 72 Q 84 81 73 81 L 51 81 Q 40 81 40 72 Z" 
        fill="#ffffff"/>
</svg>
